<svg version="1.0" xmlns="http://www.w3.org/2000/svg" width="800pt" height="800" viewBox="0 0 800 600"><path d="M430.5 26.2c-3.9 2.3-226 169.1-229 171.9l-3.1 2.9H69v193h65.1c62.4 0 65.1.1 66.7 1.9 3 3.4 227.6 171.4 231.1 172.8 7.1 3 16.1-1.3 18.1-8.5.7-2.5 1-89.4 1-263.5 0-281.6.4-263.3-5.4-268.6-3-2.8-11.8-3.9-15.1-1.9zM495.5 199l-14 14 42 42 42 42-42 42-42 42 14.5 14.5 14.5 14.5 42-42 42-42 42 42 42 42 14.2-14.2 14.3-14.3-42-42-42-42 42-42 42-42-14.5-14.5-14.5-14.5-42 42-42 42-41.8-41.8C529.3 203.8 510.3 185 510 185c-.3 0-6.8 6.3-14.5 14z"/></svg>
