<svg version="1.0" xmlns="http://www.w3.org/2000/svg" width="776pt" height="581pt" viewBox="0 0 776 581"><path d="M420.3 13c-3 1.2-231.4 172.9-233.1 175.2-1.2 1.7-4.8 1.8-66.8 1.8H55v194h130.3l2.1 2.3c4.3 4.6 231 174 234.1 175 7.2 2.2 15.5-2.2 17.5-9.1.7-2.5 1-90.1 1-265.7V24.4l-2.2-4.4c-3.5-6.7-10.9-9.6-17.5-7zM560.5 63.3c-6.6 2.2-9.9 4.3-14.4 9.2-9.3 10.1-11.3 24.8-5 36.9 2.8 5.6 6.1 8.8 14.9 15 33.8 23.9 60 66.8 69.4 113.6 3.5 17.5 4.6 29.3 4.6 49s-1.1 31.5-4.6 49c-9.3 46.7-35.7 89.9-69.1 113.4-9.1 6.4-12.3 9.6-15.2 15.2-4.4 8.5-4.7 19.3-.7 28.8 2.3 5.4 10 13.1 15.9 15.7 7.7 3.5 20.1 3.4 27.7-.2 18.9-9 49.8-39.8 68.3-67.9 8-12.3 21-38.2 26.2-52.4 5-13.7 11-37.4 13.7-54.7 2-12.8 2.2-18 2.2-46.9 0-28.8-.2-34.1-2.2-46.7-7.8-49.2-26.2-92.3-54.9-127.8-15.2-18.9-40.5-41.4-53.2-47.3-6.6-3-17.5-3.9-23.6-1.9z"/><path d="M492.5 167.4c-6.5 2.1-9.9 4.2-14.4 9.1-6.1 6.6-8.5 12.5-8.5 21-.1 12.6 4.8 21.5 16.6 30.1 7.1 5.3 15.3 15.5 19.8 24.9 18.7 38.6 9 88.7-21.5 111.1-3.6 2.7-8 6.9-9.6 9.4-11.3 17-5.2 39.3 13 47.9 8.1 3.8 19.2 3.7 27.4-.1 17.1-8 39.9-33.7 50.5-56.9 19.7-42.7 19.7-95.1 0-137.8-8.7-19-28.9-43.5-43.8-53.3-10-6.5-20.1-8.4-29.5-5.4z"/></svg>
